<svg width="20" height="23" viewBox="0 0 20 23" fill="none" xmlns="http://www.w3.org/2000/svg">
<path fill-rule="evenodd" clip-rule="evenodd" d="M10.7172 13.5709C10.669 13.608 10.6107 13.629 10.5504 13.631C10.4901 13.633 10.4306 13.6159 10.3801 13.582C9.26656 12.8642 8.27785 11.9612 7.45471 10.9102C6.44711 9.65662 5.7695 8.16006 5.48632 6.56279C5.2525 5.08027 5.47544 3.65527 6.20045 2.49561C6.49316 2.02454 6.86072 1.60687 7.28796 1.25986C8.2228 0.460851 9.398 0.015933 10.6157 0C11.7949 0.0194753 12.9242 0.490867 13.7804 1.32109C14.1093 1.6297 14.3936 1.98454 14.625 2.375C15.399 3.67383 15.5657 5.34375 15.225 7.03594C14.9395 8.37876 14.3934 9.64917 13.619 10.7718C12.8447 11.8944 11.8579 12.8462 10.7172 13.5709ZM7.27346 13.7082V18.8701L12.7382 21.2822V14.6341C13.1498 14.3125 13.5404 13.9635 13.9073 13.5895V21.2303L18.4386 18.8942V8.50361L16.6967 9.19014C16.8717 8.71739 17.0158 8.23329 17.1281 7.74102L18.8138 7.0749C18.9576 7.02116 19.1162 7.02742 19.2556 7.09232C19.3949 7.15722 19.5038 7.27558 19.5587 7.42188C19.585 7.49044 19.5985 7.56345 19.5986 7.63711V19.2709C19.5991 19.3901 19.5648 19.5067 19.5003 19.6058C19.4357 19.705 19.3437 19.7822 19.2361 19.8275L13.581 22.7351C13.499 22.7776 13.4083 22.7998 13.3164 22.7998C13.2244 22.7998 13.1338 22.7776 13.0518 22.7351L6.70795 19.9203L1.24865 22.7351C1.18023 22.7706 1.10564 22.7919 1.02915 22.7979C0.952663 22.8039 0.875774 22.7943 0.802882 22.7699C0.729991 22.7454 0.662527 22.7065 0.604349 22.6553C0.546171 22.6041 0.498421 22.5417 0.463829 22.4716C0.422779 22.3881 0.401072 22.296 0.400391 22.2025V9.87852C0.400358 9.749 0.441311 9.62296 0.517117 9.51927C0.592923 9.41557 0.699502 9.33981 0.820895 9.30332L3.7898 8.13066C3.90004 8.51315 4.03073 8.88914 4.1813 9.25693L1.57128 10.2867V21.234L6.10257 18.8979V12.4483C6.46727 12.8925 6.85831 13.3132 7.27346 13.7082ZM10.3964 2.63662C10.8883 2.63662 11.3691 2.78592 11.778 3.06565C12.187 3.34538 12.5057 3.74296 12.6939 4.20813C12.8821 4.67329 12.9314 5.18515 12.8354 5.67897C12.7395 6.17278 12.5026 6.62639 12.1548 6.98241C11.8071 7.33843 11.364 7.58089 10.8816 7.67911C10.3992 7.77734 9.89918 7.72693 9.44478 7.53425C8.99038 7.34157 8.602 7.01528 8.32875 6.59664C8.0555 6.178 7.90965 5.68582 7.90965 5.18232C7.90965 4.50716 8.17165 3.85965 8.63801 3.38224C9.10437 2.90483 9.73689 2.63662 10.3964 2.63662Z" fill="#0DAC50"/>
</svg>
