<svg width="18" height="20" viewBox="0 0 18 20" fill="none" xmlns="http://www.w3.org/2000/svg">
<path d="M11.8444 1.06464V5.03239H15.4762L11.8444 1.06464ZM2.05809 7.4289L7.16671 12.257C7.17432 12.2635 7.18179 12.2706 7.18896 12.278L8.91412 13.9083L15.8694 7.48023V5.89904H11.4348C11.2086 5.89904 11.0252 5.70492 11.0252 5.4658V1.02436H2.05809V7.4289ZM16.6887 6.72304C16.8002 6.62117 16.924 6.57647 17.0525 6.57647C17.1612 6.57647 17.2644 6.61074 17.359 6.67076C17.4284 6.71467 17.4922 6.77295 17.5477 6.84024C17.693 7.01619 17.8002 7.2877 17.8002 7.51309V18.6712C17.8002 18.9158 17.7051 19.1392 17.5521 19.302L17.5512 19.3029L17.5503 19.3036L17.5494 19.3048C17.3954 19.4661 17.1849 19.5664 16.9541 19.5664H1.04628C0.815015 19.5664 0.604053 19.4658 0.449975 19.3036L0.449229 19.3029L0.448482 19.302L0.447586 19.301C0.294852 19.138 0.200195 18.915 0.200195 18.671V7.51293C0.200195 7.28375 0.310678 7.00703 0.458485 6.83171C0.512532 6.76758 0.576134 6.71104 0.646903 6.66697C0.740365 6.60885 0.84174 6.57568 0.947893 6.57568C1.04912 6.57568 1.14721 6.60379 1.23888 6.66571V0.591118C1.23888 0.35183 1.42237 0.157715 1.64856 0.157715H11.9796C12.1062 0.157715 12.2192 0.218366 12.2943 0.313765L16.5719 4.98706C16.6491 5.07109 16.6875 5.17976 16.6875 5.28842H16.6887V5.41288C16.6907 5.43026 16.6918 5.44795 16.6918 5.46595C16.6918 5.4838 16.6907 5.50165 16.6887 5.51887V6.72304ZM8.63941 14.8059L6.90409 13.166L1.01941 18.6216V18.671C1.01941 18.6797 1.02195 18.6865 1.02598 18.6907L1.02762 18.6923C1.03165 18.6966 1.03822 18.6994 1.04628 18.6994H16.9541C16.9622 18.6994 16.9687 18.6966 16.9728 18.6923V18.6926L16.9744 18.6907C16.9784 18.6865 16.981 18.6797 16.981 18.671V18.6416L11.0166 13.1119L9.18018 14.8094L9.18003 14.8091C9.02714 14.9509 8.79468 14.9528 8.63941 14.8059ZM6.29061 12.5861L1.01941 7.60454V17.473L6.29061 12.5861ZM16.981 17.4932V7.59996L11.6369 12.5389L16.981 17.4932Z" fill="#0DAC50"/>
</svg>
