<svg width="20" height="20" viewBox="0 0 20 20" fill="none" xmlns="http://www.w3.org/2000/svg">
<path d="M5.79748 9.45966C7.04735 11.6477 8.51638 13.1992 10.809 14.3688C11.0078 14.1936 11.1139 14.0493 11.2784 13.8405C11.9287 13.0018 12.7387 11.9949 14.0652 12.6018C14.9306 13.0307 16.6316 13.9324 17.3509 14.4548C17.6248 14.6432 17.8228 14.881 17.9561 15.1512C18.2391 15.7263 18.2024 16.386 18.0228 16.983C17.9302 17.2904 17.7952 17.5949 17.6352 17.871C17.0344 18.9048 16.0368 19.444 14.8859 19.7369C13.4867 20.0915 12.2225 20.1013 10.8317 19.6814C9.78223 19.3635 8.807 18.8497 7.87568 18.2866L7.75552 18.2139C7.30363 17.9383 6.81822 17.6419 6.32122 17.2798L6.31763 17.2767C5.35996 16.5705 4.39591 15.7017 3.52167 14.7296C2.71211 13.8296 1.9744 12.8348 1.38559 11.792C0.84588 10.836 0.432316 9.8319 0.201981 8.81528C-0.125757 7.36738 -0.101406 5.70052 0.625924 4.36484C1.4774 2.8016 3.02268 2.16269 4.75279 2.31205L4.7955 2.31714C5.0945 2.35389 5.36635 2.53258 5.51365 2.79065L7.48207 6.04969C7.67449 6.30463 7.78626 6.56699 7.82378 6.8364C7.96709 7.87139 7.10084 8.50795 6.35954 9.04011C6.10685 9.21997 5.82462 9.42056 5.79748 9.45966ZM9.50479 7.4186C9.20938 7.34392 9.03174 7.04793 9.10799 6.75858C9.18424 6.46885 9.48643 6.29485 9.78183 6.36992C11.5423 6.81958 13.1422 8.23933 13.6891 9.94959C13.7798 10.2354 13.6173 10.54 13.3251 10.6288C13.0333 10.7179 12.7223 10.5584 12.6317 10.2722C12.1997 8.92163 10.8932 7.77247 9.50479 7.4186ZM9.57824 4.097C9.27685 4.04695 9.07406 3.76621 9.12515 3.471C9.17625 3.17579 9.46287 2.97677 9.76426 3.02721C13.1714 3.60511 16.1829 6.41254 17.032 9.68253C17.1074 9.97305 16.9278 10.269 16.6312 10.3429C16.3342 10.4168 16.032 10.2409 15.957 9.94998C15.2133 7.08547 12.5646 4.60414 9.57824 4.097ZM9.93432 1.08195C9.63053 1.04793 9.41218 0.778526 9.44691 0.48097C9.48164 0.183805 9.75628 -0.030467 10.0601 0.00355059C14.7981 0.546659 18.9513 4.26162 19.9868 8.81411C20.0527 9.10619 19.8643 9.39514 19.5665 9.45966C19.2687 9.52418 18.9733 9.33962 18.9078 9.04793C17.9737 4.94314 14.2069 1.57149 9.93432 1.08195ZM4.77275 9.97071C4.75399 9.9406 4.73762 9.90893 4.72405 9.8753C4.39072 9.04715 5.07454 8.56074 5.68491 8.1275C5.97831 7.92027 6.48928 7.58165 6.64097 7.23796C6.72999 7.03815 6.68688 6.88918 6.55794 6.71909L6.50605 6.64676L4.56317 3.42955C3.32447 3.3447 2.25344 3.76699 1.63908 4.89387C1.04667 5.98126 1.05705 7.39945 1.32252 8.57247C1.52611 9.47217 1.90135 10.3762 2.39435 11.2497C3.49333 13.1969 5.19949 15.0405 7.01023 16.3781C7.45094 16.6999 7.92318 16.9889 8.36309 17.2571L8.48565 17.3322C10.0724 18.298 11.7854 19.0952 13.7243 18.8149C14.0205 18.7723 14.3175 18.7183 14.5973 18.6475C15.7039 18.3656 16.5665 17.8409 16.9198 16.6655C17.0456 16.2471 17.1058 15.67 16.6967 15.3803C15.8017 14.8079 14.5231 14.1111 13.569 13.6165C13.0768 13.4018 12.5906 14.0055 12.1938 14.5173C11.9079 14.8833 11.6006 15.3013 11.1447 15.4687C10.9211 15.5508 10.6896 15.5484 10.4692 15.4597L10.395 15.4288C7.82498 14.1451 6.16234 12.4153 4.77275 9.97071Z" fill="#0DAC50"/>
</svg>
