<svg width="188" height="100" viewBox="0 0 188 100" fill="none" xmlns="http://www.w3.org/2000/svg">
<path d="M91.3574 30.7676V41.4177L92.4645 43.0723C93.0731 43.9812 94.6032 46.2709 95.8668 48.1643C97.1303 50.0578 98.9677 52.8136 99.9531 54.2876C100.938 55.7616 102.161 57.6026 102.677 58.3775L103.616 59.7874L111.082 59.7932C115.185 59.7932 118.541 59.7757 118.541 59.7583C118.541 59.735 118.054 59.0067 117.457 58.1386C116.86 57.2705 115.313 55.01 114.02 53.1223C109.957 47.1914 106.19 41.6916 105.297 40.3923C104.822 39.7049 103.889 38.3416 103.222 37.3628C102.55 36.384 101.599 34.9974 101.106 34.275C100.608 33.5525 99.0025 31.2046 97.5303 29.0606C96.0581 26.9108 94.0816 24.021 93.131 22.6344C92.1805 21.2537 91.3922 20.1176 91.3806 20.1176C91.369 20.1176 91.3574 24.9124 91.3574 30.7676Z" fill="#D21241"/>
<path d="M89.6473 22.6513C88.691 24.0438 86.7087 26.9393 85.2365 29.0892C83.7643 31.2332 82.1588 33.5811 81.6603 34.3035C81.1676 35.026 80.2171 36.4126 79.5447 37.3913C78.8782 38.3701 77.945 39.7334 77.4697 40.4209C76.5771 41.7201 72.8096 47.22 68.7466 53.1509C67.454 55.0386 65.9065 57.2991 65.3095 58.1672C64.7125 59.0353 64.2256 59.7635 64.2256 59.7868C64.2256 59.8043 67.5815 59.8218 71.691 59.8218L79.1506 59.816L80.0895 58.406C81.0517 56.9553 83.7237 52.9528 87.4854 47.3248C88.662 45.5595 90.0241 43.5146 90.5167 42.7805L91.4093 41.4405L91.3977 30.7787L91.3804 20.117L89.6473 22.6513Z" fill="black"/>
<path d="M160.917 73.6352C159.34 74.4217 159.903 76.8046 161.659 76.7929C162.546 76.7929 163.207 76.1637 163.27 75.2607C163.311 74.7014 163.172 74.3285 162.795 73.9498C162.273 73.4196 161.572 73.3031 160.917 73.6352ZM162.36 73.9498C163.096 74.4741 163.154 75.5928 162.482 76.2045C161.688 76.9269 160.442 76.3793 160.343 75.2665C160.285 74.6664 160.598 74.0896 161.108 73.8508C161.473 73.6818 162.047 73.7284 162.36 73.9498Z" fill="black"/>
<path d="M161.212 74.1948L161.021 74.2181V75.1502C161.021 75.9251 161.032 76.0882 161.107 76.1116C161.206 76.1523 161.374 76.0358 161.362 75.9368C161.357 75.9018 161.357 75.7445 161.362 75.593L161.368 75.3134L161.583 75.3309C161.826 75.3483 161.919 75.4765 161.977 75.8552C162.006 76.03 162.041 76.0824 162.157 76.1116C162.238 76.1349 162.313 76.1349 162.33 76.1232C162.383 76.0708 162.232 75.459 162.133 75.325C162.035 75.1852 162.035 75.1794 162.168 75.0454C162.354 74.8589 162.33 74.4744 162.122 74.3229C161.971 74.2122 161.542 74.154 161.212 74.1948ZM161.89 74.5618C162.029 74.7016 162.029 74.7308 161.913 74.8997C161.849 74.9929 161.768 75.0279 161.6 75.0279C161.351 75.0279 161.328 74.9988 161.357 74.6725C161.38 74.4569 161.391 74.4453 161.577 74.4453C161.699 74.4453 161.82 74.4919 161.89 74.5618Z" fill="black"/>
<path d="M77.1809 73.8162C74.2191 74.1075 72.2832 75.5349 72.2832 77.4109C72.289 79.1296 73.7264 80.3356 76.2825 80.7667C77.0592 80.9007 78.7053 80.9415 79.6327 80.8599C80.3224 80.7958 81.0006 80.6735 81.0643 80.6094C81.0933 80.5803 80.7223 79.2344 80.6702 79.1878C80.6528 79.1704 80.4905 79.1878 80.2992 79.2228C80.1137 79.2578 79.5341 79.3044 79.0067 79.3218C78.1952 79.3451 77.9692 79.3335 77.4939 79.2344C76.1492 78.9548 75.4653 78.2964 75.4595 77.2944C75.4537 76.3505 76.1956 75.6514 77.4649 75.4067C78.2242 75.2611 79.7834 75.3135 80.6354 75.5116C80.6702 75.5174 80.8267 75.197 80.9832 74.8008C81.2034 74.259 81.2556 74.0667 81.2034 74.0317C81.1049 73.9735 80.5485 73.8744 79.8471 73.8045C79.2096 73.7346 77.9054 73.7404 77.1809 73.8162Z" fill="black"/>
<path d="M119.202 73.7869C118.796 73.8335 118.071 73.9966 117.637 74.1364C115.927 74.6899 114.878 75.8085 114.785 77.1893C114.721 78.0574 115.011 78.7857 115.689 79.4557C116.414 80.1781 117.422 80.6209 118.825 80.8364C119.712 80.9704 121.346 80.9122 122.216 80.7199C124.476 80.2131 125.722 78.9896 125.722 77.2709C125.722 76.4436 125.415 75.7736 124.772 75.156C124.238 74.655 123.786 74.3928 123.01 74.1364C122.163 73.8568 121.317 73.7403 120.245 73.7578C119.77 73.7636 119.3 73.7752 119.202 73.7869ZM121.085 75.3541C121.445 75.4531 121.932 75.7619 122.111 76.0066C122.447 76.4669 122.505 76.6533 122.505 77.3291C122.505 77.9234 122.494 77.9933 122.337 78.3079C122.129 78.7158 121.821 79.0071 121.381 79.211C120.917 79.4324 119.938 79.4673 119.364 79.2867C118.825 79.1236 118.454 78.8206 118.193 78.3487C117.99 77.9817 117.984 77.9525 117.984 77.3583C117.984 76.6358 118.083 76.362 118.5 75.9134C119.08 75.2958 120.077 75.0803 121.085 75.3541Z" fill="black"/>
<path d="M59.4157 73.8624C59.0795 73.8857 58.697 73.909 58.5637 73.9148L58.3145 73.9206V77.358V80.7954H59.8156H61.3168L61.3226 79.5078V78.2145L61.8907 78.2261C62.8064 78.2436 63.0731 78.4242 63.415 79.2631C63.6932 79.9565 63.9193 80.4342 64.0526 80.6265L64.1743 80.7954H65.7045H67.2347L67.0956 80.5449C67.0202 80.4109 66.8115 79.9448 66.6319 79.5137C66.1218 78.3018 65.7972 77.8998 65.1423 77.6435L64.8988 77.5503L65.2176 77.4454C65.8842 77.2298 66.5217 76.7405 66.7072 76.3093C66.9854 75.6393 66.6087 74.8004 65.8436 74.4158C64.9394 73.9556 64.2323 73.8507 61.908 73.8332C60.8705 73.8274 59.7519 73.8391 59.4157 73.8624ZM63.2875 75.3422C63.8266 75.5752 63.9773 76.0297 63.6353 76.3909C63.3339 76.7055 63.0325 76.7871 62.1283 76.822L61.3284 76.8511V76.018V75.1907L62.1863 75.214C62.8296 75.2315 63.0962 75.2665 63.2875 75.3422Z" fill="black"/>
<path d="M150.907 73.8743C150.46 73.8976 150.06 73.9325 150.02 73.95C149.962 73.9733 149.95 74.6724 149.95 77.3C149.95 79.1236 149.968 80.6617 149.985 80.7083C150.014 80.784 150.234 80.7957 151.492 80.7957H152.964V79.5139V78.2322H153.492C154.448 78.2322 154.732 78.4128 155.057 79.2343C155.167 79.5023 155.37 79.9509 155.514 80.2422L155.775 80.7665L157.329 80.784L158.882 80.7957L158.737 80.5218C158.662 80.3645 158.488 79.98 158.355 79.6596C157.81 78.3604 157.445 77.8826 156.848 77.667L156.575 77.568L157.016 77.3874C157.734 77.0961 158.123 76.7931 158.331 76.3387C158.581 75.8085 158.465 75.2492 158.013 74.7948C157.537 74.317 156.622 73.9966 155.375 73.8684C154.651 73.7927 152.112 73.7985 150.907 73.8743ZM154.888 75.3133C155.456 75.4939 155.654 76.0474 155.283 76.4203C155.004 76.6941 154.657 76.7873 153.764 76.8164L152.964 76.8456V76.0649C152.964 75.6337 152.982 75.2609 153.011 75.2376C153.074 75.1677 154.645 75.2317 154.888 75.3133Z" fill="black"/>
<path d="M27.3163 74.0199C27.2873 74.1131 26.8178 75.1269 26.2788 76.2804C24.7023 79.6421 24.453 80.1664 24.3139 80.4869L24.1748 80.7957H25.7282H27.2815L27.5887 80.0091L27.8901 79.2226L29.3391 79.2343L30.7882 79.2517L31.1243 80.0091L31.4605 80.7665L33.0892 80.784L34.7179 80.7957L34.2948 79.9101C34.063 79.4207 33.3153 77.8593 32.6371 76.4377L31.4026 73.8626H29.3855H27.3743L27.3163 74.0199ZM29.8202 76.5251C30.0926 77.2068 30.3187 77.7777 30.3187 77.7952C30.3187 77.8127 29.8782 77.8244 29.3333 77.8244C28.7943 77.8244 28.348 77.801 28.348 77.7777C28.348 77.7311 29.0841 75.7211 29.2232 75.3832C29.2522 75.3075 29.287 75.255 29.2986 75.2667C29.3102 75.2784 29.5478 75.8493 29.8202 76.5251Z" fill="black"/>
<path d="M36.1498 74.0782C36.1324 74.2005 36.0512 74.9929 35.9701 75.8435C35.8889 76.6941 35.8136 77.4923 35.7962 77.6204C35.7846 77.7486 35.7151 78.3895 35.6513 79.0478C35.5875 79.7062 35.518 80.3645 35.5006 80.516L35.4658 80.7957H36.8627H38.2595L38.2653 80.516C38.2653 80.3645 38.2769 80.1781 38.2885 80.0965C38.3233 79.8751 38.4856 77.4981 38.5262 76.5717C38.5494 76.1231 38.5841 75.7153 38.6131 75.6687C38.6537 75.593 38.6595 75.5988 38.6653 75.6804C38.6653 75.8726 39.2855 77.6962 39.8535 79.176L40.4273 80.6791H41.5981H42.7689L43.6441 78.7682C44.1252 77.7195 44.6295 76.5776 44.7686 76.2338C44.9135 75.8901 45.041 75.5871 45.0642 75.5697C45.0816 75.5464 45.099 75.9891 45.099 76.5484C45.1047 77.1077 45.1163 77.7603 45.1279 77.9991C45.1859 78.8964 45.2728 80.5218 45.2728 80.6558V80.7957H46.7393H48.2057L48.1071 79.5838C47.9448 77.667 47.6492 74.0083 47.6492 73.9325C47.6492 73.8801 47.1508 73.8626 45.667 73.8626L43.6789 73.8684L43.1862 74.9579C42.9196 75.558 42.5139 76.5251 42.282 77.1136C42.056 77.6962 41.8589 78.1914 41.8415 78.203C41.8242 78.2205 41.714 77.9234 41.5981 77.5505C41.4764 77.1718 41.117 76.1872 40.7982 75.3599L40.2128 73.8626H38.1958H36.1845L36.1498 74.0782Z" fill="black"/>
<path d="M49.6201 77.3291V80.7957H53.3586H57.0971V80.0383V79.2809H54.8656H52.6341V78.64V77.9991H54.6338H56.6334V77.2417V76.4844H54.6338H52.6341V75.9309V75.3774H54.7497H56.8653V74.62V73.8626H53.2427H49.6201V77.3291Z" fill="black"/>
<path d="M68.1094 77.3291V80.7957H69.6164H71.1234V77.3291V73.8626H69.6164H68.1094V77.3291Z" fill="black"/>
<path d="M84.7497 74.2241C84.6569 74.428 84.0715 75.6922 83.4398 77.0381C82.808 78.3839 82.2573 79.5666 82.2168 79.6715C82.1704 79.7763 82.0313 80.0735 81.9096 80.3298L81.6777 80.7959L83.2485 80.7842L84.8134 80.7668L85.1148 79.9919L85.4104 79.2229H86.8595H88.3085L88.6505 80.0094L88.9924 80.7959H90.6037C91.4963 80.7959 92.2209 80.7842 92.2209 80.7726C92.2209 80.7609 91.4848 79.2054 90.5806 77.3177L88.9403 73.892L86.929 73.8745L84.912 73.8629L84.7497 74.2241ZM87.2826 76.3681C87.5028 76.9274 87.7347 77.4867 87.781 77.6032L87.8738 77.8246H86.8595C86.303 77.8246 85.8451 77.8129 85.8451 77.7955C85.8451 77.7838 86.0016 77.3643 86.1929 76.8691C86.3842 76.3681 86.5407 75.9486 86.5407 75.9369C86.5407 75.8204 86.7957 75.2611 86.8247 75.3019C86.8479 75.3252 87.0565 75.8088 87.2826 76.3681Z" fill="black"/>
<path d="M93.207 77.3289V80.7954H94.6039H96.0066L95.966 78.7097C95.9486 77.5678 95.9138 76.4899 95.8964 76.321C95.879 76.1578 95.8732 76.018 95.8964 76.018C95.9138 76.018 96.0355 76.1811 96.1688 76.3792C96.6151 77.0434 97.1426 77.7192 98.4119 79.2631L99.6697 80.7954H101.252H102.829V77.3289V73.8624H101.461H100.093L100.122 75.5927C100.145 76.5482 100.191 77.5736 100.238 77.8649C100.278 78.162 100.307 78.4009 100.301 78.3892C100.296 78.3834 100.087 78.0746 99.8436 77.7076C99.3219 76.9269 99.3103 76.9152 97.8787 75.1849L96.7774 73.8624H94.9922H93.207V77.3289Z" fill="black"/>
<path d="M106.016 74.6491V75.4357H107.436H108.856V78.1157V80.7957H110.363H111.87V78.1157V75.4357H113.319H114.768V74.6491V73.8626H110.392H106.016V74.6491Z" fill="black"/>
<path d="M125.955 73.9031C125.955 73.9323 126.517 75.4878 127.213 77.3697L128.476 80.7954H130.14H131.803L132.064 79.9623C132.203 79.5078 132.429 78.7912 132.557 78.3776C132.789 77.6318 133.038 76.6647 133.119 76.2336C133.136 76.1112 133.165 76.0238 133.177 76.0297C133.189 76.0413 133.264 76.3792 133.345 76.7754C133.513 77.5852 134.348 80.6847 134.412 80.7546C134.435 80.7779 135.182 80.7896 136.069 80.7838L137.692 80.7663L139.037 77.358C139.779 75.482 140.387 73.9323 140.387 73.9031C140.387 73.8798 139.709 73.8624 138.886 73.8624H137.385L137.292 74.1653C137.24 74.3343 136.991 75.3364 136.73 76.3967C136.469 77.4512 136.232 78.4242 136.197 78.5524C136.145 78.7796 136.133 78.7505 135.942 77.8532C135.837 77.3405 135.571 76.2394 135.351 75.4063L134.956 73.8915H133.339H131.728L131.363 75.1732C131.166 75.8782 130.87 76.9502 130.708 77.5619C130.546 78.1678 130.395 78.7097 130.378 78.7563C130.36 78.8029 130.221 78.3077 130.07 77.6493C129.833 76.6239 129.386 74.8062 129.195 74.0779L129.137 73.8624H127.549C126.674 73.8624 125.955 73.8798 125.955 73.9031Z" fill="black"/>
<path d="M141.256 77.3291V80.7957H144.994H148.733V80.0383V79.2809H146.501H144.27V78.64V77.9991H146.269H148.269V77.2417V76.4844H146.269H144.27V75.9309V75.3774H146.385H148.501V74.62V73.8626H144.878H141.256V77.3291Z" fill="black"/>
<rect opacity="0.1" x="0.5" y="0.5" width="187" height="99" rx="6.5" stroke="black"/>
</svg>
