<svg width="188" height="100" viewBox="0 0 188 100" fill="none" xmlns="http://www.w3.org/2000/svg">
<path d="M94.7615 45.2744C88.5989 45.2744 85.0663 47.9591 85.0663 52.6383C85.0663 57.2682 88.5989 59.9528 94.7615 59.9528C100.92 59.9528 104.443 57.2682 104.443 52.6383C104.443 47.9591 100.92 45.2744 94.7615 45.2744ZM94.7615 56.5526C91.3907 56.5526 89.6868 55.2458 89.6868 52.6383C89.6868 50.0031 91.3907 48.6846 94.7615 48.6846C98.1265 48.6846 99.846 50.0031 99.846 52.6383C99.846 55.2458 98.1265 56.5526 94.7615 56.5526ZM122.521 45.6342H105.704V48.7636H111.541V58.48C111.541 59.4072 112.937 59.7413 114.119 59.7413C115.296 59.7413 116.692 59.425 116.692 58.48V48.7636H122.521M153.582 56.3588C152.155 56.3588 151.176 56.1176 150.638 55.6669C149.944 55.0699 149.864 54.1803 149.845 53.5042V46.6444C149.845 45.7311 148.519 45.4326 147.39 45.4326C146.244 45.4326 144.912 45.7311 144.912 46.6306V53.2729C144.912 55.8073 145.714 57.5865 147.314 58.5591C149.289 59.7215 152.878 59.68 156.329 59.6345H160.643V56.3588M87.203 41.3918H66.8145V44.8395H73.8446V55.317C73.8446 57.794 75.8994 59.4764 79.3853 59.7689V44.8415H87.203M133.88 45.8023C133.445 45.5018 132.989 45.4326 132.394 45.4148C131.784 45.4346 131.308 45.5018 130.887 45.8023C129.555 46.7749 123.116 53.3342 121.981 59.0711L121.851 59.6385H126.407L126.491 59.2273C126.682 58.4168 126.974 57.5351 127.374 56.6277H137.389C137.789 57.537 138.091 58.4168 138.258 59.2273L138.356 59.6385H142.918L142.797 59.0711C141.647 53.3342 135.213 46.7749 133.88 45.8023ZM128.98 53.6782C129.968 52.1613 131.112 50.7551 132.392 49.4832C133.659 50.7623 134.794 52.1677 135.782 53.6782" fill="#ED1A3A"/>
<path d="M59.0645 51.5806C59.045 51.5075 59.0177 51.4383 58.9904 51.3711C56.6256 54.1051 50.8179 55.8784 45.593 55.483C42.5166 55.2517 36.818 53.6386 33.9424 51.8515C36.9818 54.803 40.5339 57.0447 44.5636 58.2526C49.3459 59.6957 54.444 59.5969 57.3197 58.0806C59.431 56.6395 59.9087 54.0636 59.0645 51.5787" fill="#F8981D"/>
<path d="M52.4885 34.3661C61.9049 40.0002 56.2999 57.7368 48.8058 63.4361C41.8341 68.7342 34.4141 66.2927 32.8057 61.4039C34.2113 63.5211 36.9992 64.2961 39.4751 63.45C46.361 60.6546 49.9053 48.0105 50.3635 43.6218C50.6696 39.846 50.1841 37.3057 48.8896 35.7084C47.406 34.1209 45.1367 33.348 41.8088 34.4076C44.0976 32.5038 48.9949 32.2785 52.4885 34.368" fill="#034EA2"/>
<path d="M57.7563 57.8297L57.8693 57.7585L57.8888 57.7447C58.1861 57.5509 58.4591 57.3212 58.7018 57.0607C62.3631 53.2927 63.141 42.8133 54.1125 37.8493C50.8996 36.082 43.4289 33.6069 35.9796 37.4243C33.5114 38.6855 30.9692 41.3049 29.6006 44.8672C30.6105 43.175 32.3592 42.0284 35.8041 41.5362C39.2393 41.0973 43.9787 41.639 48.6108 43.2976C51.6015 44.4145 54.015 45.7944 55.9081 47.3561C57.4658 48.7103 58.4698 50.0012 58.9884 51.3692C59.0157 51.4384 59.043 51.5076 59.0664 51.5788C59.9086 54.0637 59.4309 56.6396 57.3196 58.0827C57.419 58.0274 57.5145 57.976 57.6198 57.9107L57.6666 57.885L57.7563 57.8297Z" fill="#ED1A3A"/>
<path d="M30.7653 50.8948C30.9388 51.1736 31.3307 51.648 31.5841 51.9485C33.3972 47.633 43.3108 44.8317 46.2351 44.8673C39.6651 42.7224 33.2257 43.7444 30.6386 46.0198C29.6989 47.0814 29.4064 48.6748 30.7653 50.8948Z" fill="#F8981D"/>
<path d="M50.1008 60.6783C44.8214 60.3818 37.1342 58.3199 31.6871 52.067L31.5838 51.9484C31.2912 51.6133 31.0178 51.2615 30.765 50.8947C29.4061 48.6767 29.6986 47.0813 30.6402 46.0217H30.6344C30.4647 46.1759 30.2561 46.3756 30.0202 46.684C28.6224 48.5106 28.4567 51.4759 29.4061 54.6192C31.4824 61.4454 40.5596 65.5514 47.927 64.4245C52.6352 63.7049 55.5849 61.0203 56.8132 59.9232C54.1462 60.6942 52.1771 60.7989 50.0989 60.6783" fill="#4395D1"/>
<rect opacity="0.1" x="0.5" y="0.5" width="187" height="99" rx="6.5" stroke="black"/>
</svg>
